<?xml version="1.0" standalone="no"?>
<!DOCTYPE svg PUBLIC "-//W3C//DTD SVG 20010904//EN"
 "http://www.w3.org/TR/2001/REC-SVG-20010904/DTD/svg10.dtd">
<svg version="1.0" xmlns="http://www.w3.org/2000/svg"
 width="300.000000pt" height="209.000000pt" viewBox="0 0 300.000000 209.000000"
 preserveAspectRatio="xMidYMid meet">
<g transform="translate(0.000000,209.000000) scale(0.100000,-0.100000)"
fill="#000000" stroke="none">
<path d="M0 1045 l0 -1045 1500 0 1500 0 0 1045 0 1045 -1500 0 -1500 0 0
-1045z m1766 807 c12 -7 87 -124 136 -212 87 -155 112 -197 123 -210 34 -39
29 -66 -29 -165 -30 -52 -52 -95 -48 -95 4 0 2 -4 -4 -8 -10 -6 -59 -88 -118
-196 -11 -21 -33 -51 -49 -68 l-28 -29 -265 3 -265 3 -20 25 c-17 22 -45 70
-110 187 -10 17 -29 50 -43 72 -15 22 -26 43 -26 46 0 2 -15 28 -33 57 -18 29
-39 67 -46 84 -13 34 -19 21 114 249 32 55 70 122 85 149 15 27 40 64 54 83
l27 33 267 0 c147 0 272 -4 278 -8z m-1306 -1192 c13 -7 21 -7 25 0 10 15 46
12 67 -7 14 -13 18 -31 18 -89 0 -69 11 -97 30 -78 5 5 10 41 11 79 2 95 32
126 91 94 14 -8 23 -8 31 0 23 23 65 12 95 -25 28 -34 30 -35 37 -15 15 49 62
66 96 35 17 -15 19 -15 34 0 24 23 61 20 83 -9 l19 -24 23 24 c26 27 77 34 98
13 9 -9 15 -9 24 0 19 19 167 16 189 -4 17 -15 19 -15 34 0 26 25 56 19 97
-21 31 -30 38 -33 38 -18 0 25 29 55 53 55 12 0 31 -9 43 -21 l22 -20 33 20
c39 24 97 27 124 7 16 -12 22 -12 40 0 32 21 393 19 417 -3 16 -14 19 -14 33
1 21 20 53 20 76 0 17 -15 19 -15 34 0 26 25 56 19 97 -21 31 -30 38 -33 38
-18 0 26 29 55 56 55 13 0 32 -10 44 -22 18 -19 20 -35 20 -127 -1 -119 -10
-142 -60 -145 -24 -2 -39 6 -66 33 -30 31 -34 33 -34 15 0 -45 -66 -67 -104
-35 -11 10 -16 9 -24 -5 -7 -13 -17 -15 -43 -10 -41 8 -41 8 -152 0 -118 -9
-127 -1 -127 108 0 70 -2 79 -17 76 -15 -3 -19 -16 -21 -78 -3 -84 -18 -110
-62 -110 -39 0 -53 23 -55 88 -3 98 -4 102 -24 102 -29 0 -35 -17 -17 -45 49
-75 -38 -167 -134 -142 -19 5 -43 16 -52 24 -15 13 -19 13 -39 -6 -36 -33 -69
-27 -104 20 l-30 40 -8 -30 c-11 -44 -48 -58 -99 -37 -9 4 -25 3 -35 -2 -15
-9 -155 -10 -188 -2 -5 2 -26 -1 -45 -4 -30 -6 -39 -3 -66 23 -29 29 -32 30
-37 11 -3 -11 -17 -25 -32 -32 -23 -10 -32 -9 -55 4 -24 14 -31 14 -40 3 -20
-25 -71 -9 -107 32 l-32 38 -1 -32 c0 -35 -24 -55 -58 -50 -26 4 -52 26 -52
43 0 10 -7 7 -21 -7 -71 -71 -187 -46 -221 48 -10 28 -14 31 -27 19 -9 -8 -27
-16 -41 -18 -18 -2 -26 -10 -28 -28 -8 -52 -55 -76 -94 -46 -15 11 -18 31 -18
134 0 150 2 152 106 152 42 0 84 -5 94 -10z"/>
<path d="M1091 1604 c-72 -124 -131 -230 -131 -234 0 -5 58 -109 129 -232
l130 -223 270 -3 270 -2 14 22 c8 13 69 116 135 231 l120 207 -43 73 c-23 39
-83 142 -133 227 l-89 155 -271 3 -270 2 -131 -226z m308 -165 l61 -70 0 70 0
71 30 0 29 0 3 -70 3 -71 55 71 c51 65 57 70 94 70 29 0 36 -3 29 -12 -5 -7
-24 -32 -42 -56 l-33 -42 53 -68 c28 -37 56 -73 62 -79 7 -10 0 -13 -30 -13
-36 0 -43 4 -79 55 -21 30 -42 55 -46 55 -3 0 -27 -25 -53 -54 l-47 -55 -45
52 c-26 29 -49 53 -53 55 -4 1 -26 -22 -49 -53 -38 -51 -45 -55 -82 -55 l-39
0 60 76 c33 42 60 80 60 84 0 5 -18 31 -40 59 l-40 51 39 0 c36 0 44 -5 100
-71z"/>

<path d="M280 520 l0 -120 33 0 32 0 -4 46 -3 46 46 -3 c44 -4 46 -3 46 23 0
26 -3 28 -45 28 -40 0 -45 2 -45 23 0 22 3 23 60 19 l60 -4 0 31 0 31 -90 0
-90 0 0 -120z"/>
<path d="M490 554 c0 -120 21 -153 98 -154 24 0 52 5 64 11 31 17 48 71 48
154 l0 75 -30 0 -30 0 0 -79 c0 -84 -12 -111 -49 -111 -34 0 -45 27 -42 111
l1 79 -30 0 -30 0 0 -86z"/>
<path d="M740 520 l0 -120 31 0 31 0 -4 70 c-2 39 -3 70 -2 70 0 0 23 -31 50
-70 40 -57 54 -70 77 -70 l27 0 0 120 0 120 -31 0 -32 0 5 -70 c3 -38 5 -70 4
-70 -1 0 -24 31 -51 70 -41 57 -55 70 -77 70 l-28 0 0 -120z"/>
<path d="M1000 520 l0 -120 30 0 c28 0 30 3 30 38 0 66 13 69 54 13 33 -44 42
-51 73 -51 l34 0 -19 28 c-11 15 -34 45 -51 67 l-30 40 52 53 51 52 -41 0
c-37 0 -46 -5 -82 -46 l-41 -47 0 47 c0 44 -1 46 -30 46 l-30 0 0 -120z"/>
<path d="M1250 520 l0 -120 90 0 90 0 0 31 0 31 -60 -4 c-58 -3 -60 -2 -60 21
0 22 3 23 45 19 44 -5 45 -5 45 23 0 28 -2 29 -45 29 -36 0 -45 3 -45 18 0 14
8 17 54 14 53 -4 54 -3 58 27 l5 31 -89 0 -88 0 0 -120z"/>
<path d="M1470 520 l0 -120 30 0 30 0 0 72 0 71 50 -71 c43 -62 55 -72 80 -72
l30 0 0 120 0 120 -30 0 -30 0 0 -72 0 -71 -50 71 c-43 62 -55 72 -80 72 l-30
0 0 -120z"/>
<path d="M1752 617 c-44 -47 -23 -94 54 -120 41 -15 52 -39 21 -45 -10 -2 -27
4 -37 13 -13 12 -28 15 -45 11 -32 -8 -32 -17 1 -50 36 -36 110 -37 142 -3 45
47 18 100 -64 127 -19 6 -34 18 -34 26 0 18 46 19 57 0 9 -16 63 -11 63 6 0 5
-11 20 -25 33 -33 34 -102 35 -133 2z"/>
<path d="M1920 609 c0 -30 2 -31 35 -27 l35 4 0 -93 0 -93 30 0 30 0 0 93 0
93 35 -4 c33 -4 35 -3 35 27 l0 31 -100 0 -100 0 0 -31z"/>
<path d="M2150 520 l0 -120 90 0 90 0 0 31 0 31 -60 -4 c-58 -3 -60 -2 -60 21
0 22 3 23 45 19 44 -5 45 -5 45 23 0 28 -2 29 -45 29 -36 0 -45 3 -45 18 0 14
9 17 57 17 54 0 56 1 57 28 l2 27 -88 0 -88 0 0 -120z"/>
<path d="M2370 520 l0 -120 30 0 30 0 0 120 0 120 -30 0 -30 0 0 -120z"/>
<path d="M2480 520 l0 -120 30 0 30 0 0 72 0 71 50 -71 c43 -62 55 -72 80 -72
l30 0 0 120 0 120 -30 0 -30 0 0 -72 0 -71 -50 71 c-43 62 -55 72 -80 72 l-30
0 0 -120z"/>
<path d="M1186 571 c-31 -33 -30 -42 9 -95 22 -29 26 -16 23 59 l-3 66 -29
-30z"/>
<path d="M1427 564 c-10 -10 -9 -82 2 -88 11 -7 19 41 11 72 -3 13 -8 20 -13
16z"/>
<path d="M2320 521 c0 -36 14 -61 26 -48 8 7 -8 87 -17 87 -5 0 -9 -18 -9 -39z"/>
</g>
</svg>
