<svg xmlns="http://www.w3.org/2000/svg" viewBox="0 0 24 24" fill="#1DB954" width="32px"
                                height="32px">
                                <path
                                    d="M12 0C5.37258 0 0 5.37258 0 12C0 18.6274 5.37258 24 12 24C18.6274 24 24 18.6274 24 12C24 5.37258 18.6274 0 12 0ZM17.2014 17.2341C16.8931 17.6946 16.3043 17.8105 15.8453 17.5007C13.4642 15.9175 10.469 15.3493 7.23871 15.8346C6.7092 15.9167 6.22389 15.5675 6.14185 15.0379C6.0598 14.5084 6.40898 14.0231 6.9385 13.9411C10.5863 13.399 13.9376 13.9826 16.686 15.7237C17.145 16.0334 17.3102 16.7735 17.2014 17.2341ZM18.6225 14.481C18.2597 15.0132 17.5535 15.1646 17.0203 14.8018C14.1864 12.9856 9.93354 12.6218 6.6855 13.5465C6.12433 13.7003 5.55379 13.4003 5.40002 12.8391C5.24625 12.2779 5.54627 11.7074 6.10746 11.5536C9.96485 10.496 14.6658 10.8921 18.0457 12.9704C18.578 13.3332 18.7854 13.9488 18.6225 14.481ZM18.5175 11.3004C15.0928 9.05449 8.93091 8.91583 5.63613 9.98415C5.01045 10.1815 4.36357 9.83844 4.16619 9.21275C3.96882 8.58707 4.31187 7.94019 4.93756 7.74282C8.70846 6.53997 15.5446 6.70517 19.4506 9.29054C19.9928 9.65287 20.1554 10.372 19.7931 10.9142C19.4308 11.4565 18.7116 11.6191 18.5175 11.3004Z" />
                            </svg>